PathFileType	4	(X/Y/Z)	C:\Github\BTS_project\Data\sports2d_results\test4 Exam_2026-03-06_143128_tvc2_Sports2D\test4 Exam_2026-03-06_143128_tvc2_Sports2D_px_person00.trc
DataRate	CameraRate	NumFrames	NumMarkers	Units	OrigDataRate	OrigDataStartFrame	OrigNumFrames
30.0	30.0	4	22	m	30.0	120	321
Frame#	Time	Hip			RHip			RKnee			RAnkle			RBigToe			RSmallToe			RHeel			LHip			LKnee			LAnkle			LBigToe			LSmallToe			LHeel			Neck			Head			Nose			RShoulder			RElbow			RWrist			LShoulder			LElbow			LWrist			
		X1	Y1	Z1	X2	Y2	Z2	X3	Y3	Z3	X4	Y4	Z4	X5	Y5	Z5	X6	Y6	Z6	X7	Y7	Z7	X8	Y8	Z8	X9	Y9	Z9	X10	Y10	Z10	X11	Y11	Z11	X12	Y12	Z12	X13	Y13	Z13	X14	Y14	Z14	X15	Y15	Z15	X16	Y16	Z16	X17	Y17	Z17	X18	Y18	Z18	X19	Y19	Z19	X20	Y20	Z20	X21	Y21	Z21	X22	Y22	Z22
120	4.012499999999999	331.5853346666931	720.9031693127738	0.0	301.6804588080943	726.0799275234259	0.0	308.72228960546437	840.1860825921034	0.0	328.14923389468055	931.7579725964758	0.0	330.0084231924661	967.668168619216	0.0	314.06189799053266	963.5313011495593	0.0	338.5972080696539	940.8389661507484	0.0	362.6398187266469	723.1753307975395	0.0	371.164967734982	827.482283762749	0.0	366.57685490177704	881.8231959564267	0.0	374.60800390454415	928.3406510785057	0.0	390.30118219412634	919.2831349868602	0.0	360.85246657858295	886.6234541053099	0.0	314.60371456778023	558.9068181859806	0.0	300.23442260206104	476.2810932582379	0.0	306.0589268676304	534.8684727982409	0.0	259.5180890630847	584.3917133327574	0.0	225.9121811177951	650.8434316925117	0.0	196.90658506925058	718.9666211283526	0.0	375.0335223108747	572.3418234700582	0.0	407.5747932384925	641.6643211663436	0.0	417.62664212767146	709.7076703670768	0.0
121	4.045937499999999	331.3190225494455	720.7790247349056	0.0	301.4037810918161	725.9126655604402	0.0	309.03178208483104	840.1374474838975	0.0	328.447509634088	931.7849045745348	0.0	329.72560767429275	967.6015756126673	0.0	314.00863877542	963.1391044689514	0.0	338.4733351212027	940.8177876606443	0.0	362.7901019746372	723.0113469434899	0.0	370.6430340125846	827.6679188024709	0.0	367.2013457953626	881.1628047829712	0.0	374.72576216654136	927.6360892923018	0.0	390.23921171124596	918.4696855211015	0.0	361.3869667885825	885.9993385191167	0.0	314.8655758056998	558.740966488822	0.0	299.971767509201	476.5362681163014	0.0	305.87364008704776	535.0046285098756	0.0	259.39445522253203	584.3432838909804	0.0	226.74137822924644	651.3462047386403	0.0	197.6735221636553	719.7776960979791	0.0	374.73857279938886	572.4752683281773	0.0	407.65324366258193	641.9841571392876	0.0	417.08862395412666	709.820268501808	0.0
122	4.079375	331.2020481107138	720.6280425441386	0.0	301.28909579550447	725.5555784028181	0.0	309.0682368811108	839.9614765377925	0.0	328.44918255023623	931.9001466016261	0.0	329.64622479885924	967.4360564733033	0.0	314.3116267461153	962.54656673948	0.0	338.61128044552265	940.8838012989289	0.0	362.8348658372044	722.5307032816702	0.0	370.3948831581867	827.3058272430253	0.0	367.3269581335322	880.10782970053	0.0	374.67636167526643	926.9724336710012	0.0	390.27591396410213	916.998127265325	0.0	361.5452844049982	884.9419963888474	0.0	314.7919710067868	559.0677680623123	0.0	299.83110930645734	476.42489931740863	0.0	305.68454939182783	534.7818134716023	0.0	259.3332234875696	584.2008246681013	0.0	227.48878813366485	651.5875135283413	0.0	198.38369540161838	720.1741512134292	0.0	374.6851905120715	572.2727367384573	0.0	407.72804080799636	642.0026767284661	0.0	416.7672363000969	709.6156039227288	0.0
123	4.1128124999999995	331.22791233132125	720.3269866316049	0.0	301.3953371378868	725.2190183260589	0.0	309.1692863134243	839.5622284437825	0.0	328.3648189210903	932.0453620640992	0.0	329.86621961716196	967.2966365685274	0.0	314.6529875603595	962.5294862664132	0.0	339.0215032777481	941.0130357240058	0.0	362.82592422681927	721.8392978431286	0.0	370.72231708915956	826.6751512139067	0.0	366.84693406458814	878.874926891573	0.0	374.4106360658829	926.0034520727559	0.0	389.96335077211927	915.2469996521529	0.0	361.43162077792647	883.2963626835858	0.0	314.3617955804232	559.4506087382958	0.0	299.952373987543	476.0676482522865	0.0	305.44215125336	534.2828136769233	0.0	259.37416954882195	583.8398940395643	0.0	227.91432283922373	651.1004179286657	0.0	198.99515047959719	719.9099017023012	0.0	374.7963814311541	571.6040993950429	0.0	407.68816341835605	641.6856657568126	0.0	416.73402655170435	709.6248663559813	0.0
